<?xml version="1.0" encoding="UTF-8"?>
<!DOCTYPE svg PUBLIC "-//W3C//DTD SVG 1.1//EN" "http://www.w3.org/Graphics/SVG/1.1/DTD/svg11.dtd">

<svg xmlns="http://www.w3.org/2000/svg" xml:space="preserve" width="1258px" height="486px" version="1.1" style="shape-rendering:geometricPrecision; text-rendering:geometricPrecision; image-rendering:optimizeQuality; fill-rule:evenodd; clip-rule:evenodd"
viewBox="0 0 1258 486"
 xmlns:xlink="http://www.w3.org/1999/xlink"
 xmlns:xodm="http://www.corel.com/coreldraw/odm/2003">
 <defs>
  <style type="text/css">
   <![CDATA[
    .str0 {stroke:black;stroke-width:4.73;stroke-linecap:square;stroke-miterlimit:22.9256}
    .fil3 {fill:none}
    .fil1 {fill:#E51A4B}
    .fil4 {fill:#E51A4B}
    .fil2 {fill:#FEFEFE;fill-rule:nonzero}
    .fil0 {fill:black;fill-rule:nonzero}
    .fil5 {fill:white;fill-rule:nonzero}
   ]]>
  </style>
   <clipPath id="id0">
    <path d="M0 0l1258 0 0 486 -1258 0 0 -486z"/>
   </clipPath>
      <mask id="id1">
  <linearGradient id="id2" gradientUnits="userSpaceOnUse" x1="1137.57" y1="322.63" x2="-5.03" y2="322.59">
   <stop offset="0" style="stop-opacity:1; stop-color:white"/>
   <stop offset="1" style="stop-opacity:0; stop-color:white"/>
  </linearGradient>
       <rect style="fill:url(#id2)" x="-259.74" y="301.23" width="1576.98" height="46.21"/>
      </mask>
 </defs>
 <g id="Layer_x0020_1">
  <metadata id="CorelCorpID_0Corel-Layer"/>
  <g>
  </g>
  <g style="clip-path:url(#id0)">
   <g>
    <g id="_1664997070368">
     <path class="fil0" d="M17.55 258.04l32.97 0c3.34,0.76 5.75,3.76 5.75,7.23 0,3.38 -2.32,6.36 -5.57,7.21l-33.15 0 0 -14.44zm52.91 -4.83c-1.37,-2.45 -3.12,-4.62 -5.19,-6.47 -0.31,-0.25 -0.6,-0.52 -0.91,-0.76 0.12,-0.19 0.23,-0.39 0.35,-0.6l0 -0.02 0.02 0 0 -0.04c0.04,-0.04 0.08,-0.12 0.12,-0.18 2.06,-3.68 3.13,-7.85 3.13,-12.06 0,-4.19 -1.07,-8.34 -3.08,-11.98 -0.07,-0.12 -0.13,-0.24 -0.21,-0.37 -4.4,-7.66 -12.63,-12.4 -21.45,-12.4l-42.99 0 0 17.6 17.3 0 0 -0.04 27.62 0c3.21,0.86 5.49,3.84 5.49,7.19 0,3.55 -2.49,6.57 -5.96,7.27l-44.45 0 0 49.67 42.99 0c0.93,0 1.87,-0.06 2.8,-0.17 0.94,0.11 1.87,0.17 2.81,0.17 8.98,0 17.28,-4.87 21.63,-12.74 2.04,-3.65 3.1,-7.8 3.1,-12.01 0,-4.24 -1.06,-8.4 -3.12,-12.06l0 0z"/>
     <path id="_1" class="fil0" d="M139.34 208.57l0 44.62c0,10.47 -8.36,19.22 -18.65,19.53 -0.23,0 -0.45,0 -0.7,0 -0.25,0 -0.47,0 -0.72,0 -10.29,-0.33 -18.65,-9.08 -18.65,-19.53l0 -44.62 -17.3 0 0 50.88c0,6.58 2.4,12.78 6.76,17.48 1.62,1.77 3.43,3.39 5.34,4.85 7.11,5.38 15.61,8.24 24.57,8.24 8.93,0 17.42,-2.84 24.55,-8.22 1.88,-1.44 3.67,-3.04 5.29,-4.78 4.38,-4.71 6.8,-10.93 6.8,-17.55l0 -50.9 -17.29 0z"/>
     <path id="_2" class="fil0" d="M215.69 240.64l-23.37 0c-4.09,0 -7.4,-3.31 -7.4,-7.4 0,-4.07 3.31,-7.39 7.4,-7.39l27.05 0c2.61,0.9 4.5,3.39 4.5,6.28l16.92 0c0,-2.18 -0.28,-4.27 -0.84,-6.28 -2.75,-9.97 -11.87,-17.28 -22.72,-17.28l-24.91 0c-8.84,0 -17.05,4.77 -21.45,12.43 -2.12,3.72 -3.25,7.95 -3.25,12.24 0,4.32 1.13,8.55 3.25,12.27 0.94,1.66 2.09,3.18 3.37,4.56 4.62,4.95 11.15,7.86 18.08,7.86l23.37 0c4.07,0 7.4,3.33 7.4,7.4 0,4.09 -3.33,7.39 -7.4,7.39l-26.64 0c-2.61,-0.88 -4.5,-3.37 -4.5,-6.28l-16.93 0c0,2.17 0.29,4.29 0.85,6.28 2.75,9.97 11.89,17.3 22.74,17.3l24.48 0c8.83,0 17.05,-4.77 21.45,-12.45 2.11,-3.7 3.24,-7.93 3.24,-12.24 0,-4.3 -1.13,-8.53 -3.24,-12.25 -4.4,-7.68 -12.62,-12.44 -21.45,-12.44l0 0z"/>
     <polygon id="_3" class="fil0" points="253.16,208.45 253.16,290.02 270.45,290.02 270.45,208.45 "/>
     <path id="_4" class="fil0" d="M282.74 289.92l17.29 0 0 -27.39 -17.29 -17.29 0 44.68zm48.68 -81.47l0 43.96 -44.39 -44.39 -4.29 0 0 2.09 0 7.77 0 10.31 17.29 17.3 11.84 11.83 20.5 20.5 12.22 12.2 4.13 0 0 -81.57 -17.3 0z"/>
     <path id="_5" class="fil0" d="M361 208.59l0 3.25 0 14.05 72.76 0 0 -17.3 -72.76 0zm17.3 46.65l48.21 0 0 -17.29 -48.21 0 -17.3 -0.11 0 34.88 0 3.25 0 14.05 72.76 0 0 -17.3 -55.46 0 0 -17.48z"/>
     <path id="_6" class="fil0" d="M488.69 240.64l-23.38 0c-4.08,0 -7.39,-3.31 -7.39,-7.4 0,-4.07 3.31,-7.39 7.39,-7.39l27.06 0c2.6,0.9 4.49,3.39 4.49,6.28l16.93 0c0,-2.18 -0.29,-4.27 -0.84,-6.28 -2.75,-9.97 -11.87,-17.28 -22.72,-17.28l-24.92 0c-8.83,0 -17.05,4.77 -21.44,12.43 -2.12,3.72 -3.25,7.95 -3.25,12.24 0,4.32 1.13,8.55 3.25,12.27 0.94,1.66 2.09,3.18 3.37,4.56 4.62,4.95 11.15,7.86 18.07,7.86l23.38 0c4.07,0 7.39,3.33 7.39,7.4 0,4.09 -3.32,7.39 -7.39,7.39l-26.64 0c-2.61,-0.88 -4.5,-3.37 -4.5,-6.28l-16.93 0c0,2.17 0.29,4.29 0.84,6.28 2.76,9.97 11.9,17.3 22.74,17.3l24.49 0c8.83,0 17.05,-4.77 21.44,-12.45 2.12,-3.7 3.25,-7.93 3.25,-12.24 0,-4.3 -1.13,-8.53 -3.25,-12.25 -4.39,-7.68 -12.61,-12.44 -21.44,-12.44l0 0z"/>
     <path id="_7" class="fil0" d="M572.87 240.64l-23.38 0c-4.08,0 -7.39,-3.31 -7.39,-7.4 0,-4.07 3.31,-7.39 7.39,-7.39l27.06 0c2.6,0.9 4.49,3.39 4.49,6.28l16.93 0c0,-2.18 -0.29,-4.27 -0.84,-6.28 -2.75,-9.97 -11.87,-17.28 -22.72,-17.28l-24.92 0c-8.83,0 -17.05,4.77 -21.44,12.43 -2.12,3.72 -3.25,7.95 -3.25,12.24 0,4.32 1.13,8.55 3.25,12.27 0.94,1.66 2.09,3.18 3.37,4.56 4.62,4.95 11.15,7.86 18.07,7.86l23.38 0c4.07,0 7.39,3.33 7.39,7.4 0,4.09 -3.32,7.39 -7.39,7.39l-26.64 0c-2.61,-0.88 -4.5,-3.37 -4.5,-6.28l-16.93 0c0,2.17 0.29,4.29 0.84,6.28 2.76,9.97 11.9,17.3 22.74,17.3l24.49 0c8.83,0 17.05,-4.77 21.44,-12.45 2.12,-3.7 3.25,-7.93 3.25,-12.24 0,-4.3 -1.13,-8.53 -3.25,-12.25 -4.39,-7.68 -12.61,-12.44 -21.44,-12.44l0 0z"/>
     <rect class="fil1" transform="matrix(1.33034E-14 0.502307 -0.34996 9.26853E-15 77.5855 139.744)" width="98.08" height="220.98"/>
     <path class="fil2" d="M19.32 174.77l0 -13.29 -4.41 0 0 13.29 4.41 0zm-11.42 -20.78l0 4.41 7.01 0 0 0 4.41 0 0 0 7.3 0 0 -4.41 -18.72 0z"/>
     <polygon id="_1_0" class="fil2" points="43.75,154.02 43.75,161.51 34.18,161.51 34.18,154.02 29.77,154.02 29.77,174.77 34.18,174.77 34.18,165.93 43.75,165.93 43.75,174.77 48.17,174.77 48.17,154.02 "/>
     <path id="_2_1" class="fil2" d="M51.35 153.98l0 0.83 0 3.59 18.58 0 0 -4.42 -18.58 0zm4.42 11.91l12.31 0 0 -4.41 -12.31 0 -4.42 -0.03 0 8.91 0 0.82 0 3.59 18.58 0 0 -4.41 -14.16 0 0 -4.47z"/>
     <line class="fil3 str0" x1="88.96" y1="179.8" x2="1253.25" y2= "179.8" />
     <path class="fil0" d="M663.6 290.02l17.29 0 0 -27.55 -17.29 -17.25 0 44.8zm69.55 -82l-32.62 32.62 -16.19 -16.17 -16.45 -16.45 -4.29 0 0 20.15 17.29 17.29 7.99 8 11.63 11.62 2.3 -2.28 3.16 -3.16 0.95 -0.95 3.53 -3.53 9.18 -9.18 0 44.04 17.3 0 0 -82 -3.78 0z"/>
     <path class="fil0" d="M747.98 285.21l-2.67 4.81 21.69 0 0.93 -1.67 17.62 -31.85 -10.86 -19.54 -26.71 48.25zm88.93 0l-34.49 -62.32 -7.09 -12.8 -0.8 -1.79 -4.15 0 -0.84 1.81 -7.07 12.78 -0.88 1.58 -0.02 0.06 10.86 19.54 0.33 0.57 7.95 14.36 16.23 29.35 0.92 1.67 21.72 0 -2.67 -4.81z"/>
     <path class="fil0" d="M890.75 240.64l-23.38 0c-4.09,0 -7.39,-3.31 -7.39,-7.4 0,-4.07 3.3,-7.39 7.39,-7.39l27.06 0c2.6,0.9 4.49,3.39 4.49,6.28l16.93 0c0,-2.18 -0.29,-4.27 -0.84,-6.28 -2.75,-9.97 -11.87,-17.28 -22.72,-17.28l-24.92 0c-8.83,0 -17.05,4.77 -21.44,12.43 -2.12,3.72 -3.25,7.95 -3.25,12.24 0,4.32 1.13,8.55 3.25,12.27 0.94,1.66 2.09,3.18 3.37,4.56 4.62,4.95 11.15,7.86 18.07,7.86l23.38 0c4.07,0 7.39,3.33 7.39,7.4 0,4.09 -3.32,7.39 -7.39,7.39l-26.64 0c-2.61,-0.88 -4.5,-3.37 -4.5,-6.28l-16.93 0c0,2.17 0.29,4.29 0.84,6.28 2.76,9.97 11.9,17.3 22.74,17.3l24.49 0c8.83,0 17.05,-4.77 21.44,-12.45 2.12,-3.7 3.25,-7.93 3.25,-12.24 0,-4.3 -1.13,-8.53 -3.25,-12.25 -4.39,-7.68 -12.61,-12.44 -21.44,-12.44l0 0z"/>
     <path class="fil0" d="M967.53 290.02l0 -52.05 -17.29 0 0 52.05 17.29 0zm-44.73 -81.41l0 17.3 27.44 0 0 0 17.29 0 0 0 28.6 0 0 -17.3 -73.33 0z"/>
     <path class="fil0" d="M1008.46 208.59l0 3.25 0 14.05 72.75 0 0 -17.3 -72.75 0zm17.29 46.65l48.21 0 0 -17.29 -48.21 0 -17.29 -0.11 0 34.88 0 3.25 0 14.05 72.75 0 0 -17.3 -55.46 0 0 -17.48z"/>
     <path class="fil0" d="M1169.24 285.09l-23.3 -38.23c0.13,-0.1 0.27,-0.2 0.41,-0.31l0.09 -0.06c0.1,-0.08 0.18,-0.14 0.28,-0.23 0.17,-0.14 0.35,-0.28 0.52,-0.41 0.24,-0.2 0.47,-0.39 0.68,-0.57 0.04,-0.02 0.06,-0.06 0.1,-0.08 0.16,-0.15 0.35,-0.31 0.53,-0.46 0.49,-0.45 1.01,-0.94 1.56,-1.45 5.59,-5.55 9.45,-12.51 11.16,-20.15 0.63,-2.88 0.96,-5.88 0.96,-8.88 0,-0.94 -0.02,-1.91 -0.1,-2.87l-0.21 -3 -68.42 0 0 17.27 37.06 0 0 0 11.42 0c-1.07,1.95 -2.45,3.74 -4.03,5.3 -2.09,2.08 -4.5,3.7 -7.15,4.85 -0.08,0.04 -0.16,0.08 -0.24,0.1 -2.88,1.21 -5.92,1.81 -9.08,1.81l-27.98 0 0 52.3 17.3 0 0 -35 10.68 0c0.26,0 0.53,0 0.8,0l0.04 0 0.02 0 0.21 -0.02 0.18 0 0.04 0c0.21,0 0.41,-0.02 0.62,-0.02 0.1,0 0.18,0 0.24,-0.03 0.27,0 0.54,-0.02 0.81,-0.04l0.16 0 0.14 -0.02c0.27,-0.02 0.56,-0.04 0.87,-0.08 0.26,-0.02 0.55,-0.06 0.82,-0.08 0.12,-0.02 0.24,-0.04 0.35,-0.06 0.26,-0.02 0.53,-0.07 0.78,-0.11l0.04 0c0.1,-0.02 0.18,-0.04 0.29,-0.04 0.22,-0.04 0.43,-0.08 0.61,-0.1 0.52,-0.1 1.07,-0.21 1.58,-0.31l20.96 34.35 0.94 1.56 20.28 0 -3.02 -4.93z"/>
     <path id="_1_2" class="fil0" d="M1232.65 240.64l-23.38 0c-4.09,0 -7.39,-3.31 -7.39,-7.4 0,-4.07 3.3,-7.39 7.39,-7.39l27.06 0c2.6,0.9 4.49,3.39 4.49,6.28l16.93 0c0,-2.18 -0.29,-4.27 -0.84,-6.28 -2.75,-9.97 -11.87,-17.28 -22.72,-17.28l-24.92 0c-8.83,0 -17.05,4.77 -21.44,12.43 -2.12,3.72 -3.25,7.95 -3.25,12.24 0,4.32 1.13,8.55 3.25,12.27 0.94,1.66 2.09,3.18 3.37,4.56 4.62,4.95 11.15,7.86 18.07,7.86l23.38 0c4.07,0 7.39,3.33 7.39,7.4 0,4.09 -3.32,7.39 -7.39,7.39l-26.64 0c-2.61,-0.88 -4.5,-3.37 -4.5,-6.28l-16.93 0c0,2.17 0.29,4.29 0.84,6.28 2.76,9.97 11.9,17.3 22.74,17.3l24.49 0c8.83,0 17.05,-4.77 21.44,-12.45 2.12,-3.7 3.25,-7.93 3.25,-12.24 0,-4.3 -1.13,-8.53 -3.25,-12.25 -4.39,-7.68 -12.61,-12.44 -21.44,-12.44l0 0z"/>
     <polygon class="fil4" style="mask:url(#id1)" points="1316.06,302.41 -258.56,302.41 -258.56,346.26 1316.06,346.26 "/>
     <polygon class="fil5" points="762.75,316.92 765.81,316.92 773.12,328.08 773.12,316.92 776.33,316.92 776.33,333.88 773.24,333.88 765.96,322.76 765.96,333.88 762.75,333.88 "/>
     <path id="_1_3" class="fil5" d="M789.12 321.34l3.14 0 0 12.54 -3.14 0 0 -1.34c-0.62,0.59 -1.23,1 -1.85,1.26 -0.62,0.25 -1.29,0.38 -2.01,0.38 -1.63,0 -3.03,-0.62 -4.21,-1.88 -1.19,-1.25 -1.78,-2.81 -1.78,-4.67 0,-1.93 0.58,-3.51 1.72,-4.75 1.15,-1.23 2.54,-1.85 4.17,-1.85 0.76,0 1.46,0.15 2.12,0.42 0.67,0.28 1.28,0.71 1.84,1.27l0 -1.38zm-3.31 2.57c-0.98,0 -1.79,0.35 -2.43,1.04 -0.64,0.68 -0.97,1.56 -0.97,2.63 0,1.09 0.33,1.98 0.99,2.68 0.65,0.69 1.46,1.04 2.42,1.04 0.99,0 1.81,-0.34 2.46,-1.03 0.65,-0.68 0.98,-1.58 0.98,-2.7 0,-1.09 -0.33,-1.97 -0.98,-2.64 -0.65,-0.68 -1.48,-1.02 -2.47,-1.02z"/>
     <polygon id="_2_4" class="fil5" points="794.09,321.34 797.31,321.34 800.47,328.74 803.65,321.34 806.84,321.34 801.45,333.88 799.44,333.88 "/>
     <path id="_3_5" class="fil5" d="M809.9 316.19c0.55,0 1.02,0.2 1.41,0.6 0.4,0.4 0.6,0.88 0.6,1.45 0,0.55 -0.2,1.03 -0.59,1.42 -0.39,0.4 -0.86,0.59 -1.4,0.59 -0.56,0 -1.04,-0.2 -1.43,-0.6 -0.4,-0.4 -0.6,-0.89 -0.6,-1.46 0,-0.55 0.2,-1.02 0.59,-1.41 0.39,-0.39 0.86,-0.59 1.42,-0.59zm-1.58 5.15l3.14 0 0 12.54 -3.14 0 0 -12.54z"/>
     <path id="_4_6" class="fil5" d="M823.61 321.34l3.12 0 0 10.73c0,2.11 -0.43,3.67 -1.29,4.67 -1.14,1.35 -2.87,2.03 -5.18,2.03 -1.23,0 -2.26,-0.16 -3.1,-0.47 -0.84,-0.3 -1.55,-0.75 -2.12,-1.35 -0.58,-0.6 -1.01,-1.32 -1.29,-2.17l3.48 0c0.31,0.35 0.71,0.61 1.2,0.79 0.48,0.18 1.06,0.27 1.72,0.27 0.85,0 1.53,-0.13 2.05,-0.39 0.52,-0.26 0.88,-0.6 1.09,-1.01 0.21,-0.41 0.32,-1.12 0.32,-2.12 -0.55,0.55 -1.14,0.95 -1.75,1.19 -0.61,0.25 -1.3,0.37 -2.07,0.37 -1.68,0 -3.11,-0.61 -4.28,-1.82 -1.16,-1.21 -1.75,-2.75 -1.75,-4.61 0,-1.98 0.62,-3.58 1.85,-4.78 1.13,-1.09 2.46,-1.64 4.01,-1.64 0.72,0 1.41,0.14 2.05,0.4 0.65,0.26 1.29,0.7 1.94,1.31l0 -1.4zm-3.29 2.64c-1,0 -1.82,0.34 -2.47,1 -0.65,0.66 -0.97,1.49 -0.97,2.49 0,1.04 0.33,1.89 1,2.56 0.66,0.66 1.49,0.99 2.5,0.99 0.98,0 1.78,-0.33 2.42,-0.97 0.63,-0.65 0.95,-1.5 0.95,-2.56 0,-1.04 -0.32,-1.88 -0.96,-2.53 -0.64,-0.65 -1.46,-0.98 -2.47,-0.98z"/>
     <path id="_5_7" class="fil5" d="M839.17 321.34l3.14 0 0 12.54 -3.14 0 0 -1.34c-0.61,0.59 -1.23,1 -1.85,1.26 -0.61,0.25 -1.29,0.38 -2.01,0.38 -1.62,0 -3.02,-0.62 -4.21,-1.88 -1.18,-1.25 -1.77,-2.81 -1.77,-4.67 0,-1.93 0.57,-3.51 1.72,-4.75 1.14,-1.23 2.53,-1.85 4.17,-1.85 0.75,0 1.46,0.15 2.12,0.42 0.66,0.28 1.27,0.71 1.83,1.27l0 -1.38zm-3.31 2.57c-0.97,0 -1.78,0.35 -2.42,1.04 -0.65,0.68 -0.97,1.56 -0.97,2.63 0,1.09 0.32,1.98 0.98,2.68 0.66,0.69 1.47,1.04 2.43,1.04 0.98,0 1.81,-0.34 2.46,-1.03 0.65,-0.68 0.98,-1.58 0.98,-2.7 0,-1.09 -0.33,-1.97 -0.98,-2.64 -0.65,-0.68 -1.48,-1.02 -2.48,-1.02z"/>
     <polygon id="_6_8" class="fil5" points="845.86,316.71 849,316.71 849,321.34 850.86,321.34 850.86,324.06 849,324.06 849,333.88 845.86,333.88 845.86,324.06 844.25,324.06 844.25,321.34 845.86,321.34 "/>
     <path id="_7_9" class="fil5" d="M853.81 316.19c0.55,0 1.02,0.2 1.41,0.6 0.4,0.4 0.6,0.88 0.6,1.45 0,0.55 -0.2,1.03 -0.59,1.42 -0.39,0.4 -0.86,0.59 -1.4,0.59 -0.56,0 -1.04,-0.2 -1.43,-0.6 -0.4,-0.4 -0.59,-0.89 -0.59,-1.46 0,-0.55 0.19,-1.02 0.58,-1.41 0.39,-0.39 0.86,-0.59 1.42,-0.59zm-1.58 5.15l3.14 0 0 12.54 -3.14 0 0 -12.54z"/>
     <path id="_8" class="fil5" d="M858.22 321.34l3.14 0 0 1.29c0.71,-0.6 1.36,-1.01 1.94,-1.25 0.58,-0.23 1.17,-0.35 1.78,-0.35 1.24,0 2.3,0.44 3.17,1.3 0.72,0.74 1.09,1.83 1.09,3.27l0 8.28 -3.12 0 0 -5.48c0,-1.5 -0.06,-2.49 -0.2,-2.98 -0.13,-0.49 -0.37,-0.86 -0.7,-1.12 -0.33,-0.26 -0.75,-0.39 -1.23,-0.39 -0.64,0 -1.19,0.22 -1.64,0.64 -0.46,0.43 -0.78,1.02 -0.95,1.76 -0.09,0.4 -0.14,1.24 -0.14,2.55l0 5.02 -3.14 0 0 -12.54z"/>
     <path id="_9" class="fil5" d="M881.69 321.34l3.12 0 0 10.73c0,2.11 -0.43,3.67 -1.28,4.67 -1.15,1.35 -2.88,2.03 -5.19,2.03 -1.22,0 -2.26,-0.16 -3.1,-0.47 -0.84,-0.3 -1.55,-0.75 -2.12,-1.35 -0.58,-0.6 -1.01,-1.32 -1.28,-2.17l3.48 0c0.3,0.35 0.7,0.61 1.19,0.79 0.49,0.18 1.06,0.27 1.72,0.27 0.85,0 1.53,-0.13 2.05,-0.39 0.52,-0.26 0.88,-0.6 1.09,-1.01 0.22,-0.41 0.32,-1.12 0.32,-2.12 -0.55,0.55 -1.13,0.95 -1.74,1.19 -0.61,0.25 -1.3,0.37 -2.07,0.37 -1.69,0 -3.12,-0.61 -4.29,-1.82 -1.16,-1.21 -1.74,-2.75 -1.74,-4.61 0,-1.98 0.62,-3.58 1.85,-4.78 1.12,-1.09 2.45,-1.64 4,-1.64 0.73,0 1.41,0.14 2.06,0.4 0.64,0.26 1.28,0.7 1.93,1.31l0 -1.4zm-3.29 2.64c-1,0 -1.82,0.34 -2.46,1 -0.65,0.66 -0.98,1.49 -0.98,2.49 0,1.04 0.33,1.89 1,2.56 0.66,0.66 1.49,0.99 2.5,0.99 0.98,0 1.79,-0.33 2.42,-0.97 0.64,-0.65 0.96,-1.5 0.96,-2.56 0,-1.04 -0.32,-1.88 -0.97,-2.53 -0.64,-0.65 -1.46,-0.98 -2.47,-0.98z"/>
     <path id="_10" class="fil5" d="M910.52 319.9l-2.26 2.15c-1.54,-1.62 -3.27,-2.43 -5.19,-2.43 -1.62,0 -2.99,0.55 -4.1,1.66 -1.12,1.1 -1.67,2.47 -1.67,4.09 0,1.12 0.25,2.13 0.74,3 0.49,0.88 1.19,1.57 2.09,2.07 0.9,0.5 1.9,0.75 3,0.75 0.93,0 1.79,-0.18 2.57,-0.53 0.78,-0.35 1.63,-0.98 2.56,-1.91l2.19 2.29c-1.25,1.23 -2.43,2.08 -3.55,2.55 -1.11,0.48 -2.39,0.71 -3.82,0.71 -2.63,0 -4.79,-0.83 -6.47,-2.5 -1.68,-1.67 -2.52,-3.82 -2.52,-6.43 0,-1.69 0.38,-3.19 1.15,-4.5 0.76,-1.32 1.86,-2.37 3.28,-3.17 1.43,-0.8 2.96,-1.2 4.61,-1.2 1.4,0 2.74,0.3 4.04,0.88 1.3,0.6 2.42,1.43 3.35,2.52z"/>
     <path id="_11" class="fil5" d="M913.02 316.5l3.14 0 0 6.12c0.62,-0.53 1.23,-0.93 1.85,-1.19 0.62,-0.26 1.25,-0.4 1.88,-0.4 1.24,0 2.29,0.43 3.14,1.29 0.73,0.75 1.09,1.84 1.09,3.28l0 8.28 -3.09 0 0 -5.49c0,-1.45 -0.07,-2.43 -0.21,-2.95 -0.14,-0.51 -0.37,-0.89 -0.71,-1.15 -0.33,-0.25 -0.74,-0.38 -1.23,-0.38 -0.63,0 -1.18,0.22 -1.64,0.64 -0.45,0.42 -0.76,0.99 -0.94,1.72 -0.09,0.38 -0.14,1.24 -0.14,2.58l0 5.03 -3.14 0 0 -17.38z"/>
     <path id="_12" class="fil5" d="M936.45 321.34l3.14 0 0 12.54 -3.14 0 0 -1.34c-0.62,0.59 -1.23,1 -1.85,1.26 -0.62,0.25 -1.29,0.38 -2.01,0.38 -1.63,0 -3.03,-0.62 -4.21,-1.88 -1.19,-1.25 -1.78,-2.81 -1.78,-4.67 0,-1.93 0.58,-3.51 1.72,-4.75 1.15,-1.23 2.54,-1.85 4.17,-1.85 0.76,0 1.46,0.15 2.12,0.42 0.67,0.28 1.27,0.71 1.84,1.27l0 -1.38zm-3.31 2.57c-0.98,0 -1.79,0.35 -2.43,1.04 -0.64,0.68 -0.97,1.56 -0.97,2.63 0,1.09 0.33,1.98 0.99,2.68 0.65,0.69 1.46,1.04 2.42,1.04 0.99,0 1.81,-0.34 2.46,-1.03 0.65,-0.68 0.98,-1.58 0.98,-2.7 0,-1.09 -0.33,-1.97 -0.98,-2.64 -0.65,-0.68 -1.48,-1.02 -2.47,-1.02z"/>
     <polygon id="_13" class="fil5" points="942.43,316.5 945.57,316.5 945.57,333.88 942.43,333.88 "/>
     <polygon id="_14" class="fil5" points="948.08,316.5 951.22,316.5 951.22,333.88 948.08,333.88 "/>
     <path id="_15" class="fil5" d="M966.62 328.49l-10.09 0c0.14,0.9 0.53,1.61 1.16,2.14 0.63,0.53 1.44,0.79 2.42,0.79 1.17,0 2.17,-0.41 3.01,-1.24l2.64 1.25c-0.66,0.94 -1.45,1.63 -2.36,2.08 -0.92,0.45 -2.02,0.67 -3.28,0.67 -1.96,0 -3.56,-0.61 -4.79,-1.85 -1.23,-1.24 -1.85,-2.79 -1.85,-4.65 0,-1.91 0.62,-3.49 1.85,-4.75 1.23,-1.27 2.78,-1.9 4.64,-1.9 1.97,0 3.58,0.63 4.81,1.89 1.24,1.26 1.85,2.91 1.85,4.98l-0.01 0.59zm-3.13 -2.45c-0.2,-0.69 -0.61,-1.24 -1.22,-1.67 -0.62,-0.43 -1.33,-0.64 -2.14,-0.64 -0.87,0 -1.64,0.23 -2.31,0.72 -0.41,0.3 -0.8,0.83 -1.15,1.59l6.82 0z"/>
     <path id="_16" class="fil5" d="M969.19 321.34l3.14 0 0 1.29c0.71,-0.6 1.36,-1.01 1.94,-1.25 0.58,-0.23 1.17,-0.35 1.78,-0.35 1.24,0 2.3,0.44 3.17,1.3 0.72,0.74 1.09,1.83 1.09,3.27l0 8.28 -3.12 0 0 -5.48c0,-1.5 -0.06,-2.49 -0.2,-2.98 -0.13,-0.49 -0.37,-0.86 -0.7,-1.12 -0.33,-0.26 -0.75,-0.39 -1.23,-0.39 -0.64,0 -1.19,0.22 -1.64,0.64 -0.46,0.43 -0.78,1.02 -0.95,1.76 -0.09,0.4 -0.14,1.24 -0.14,2.55l0 5.02 -3.14 0 0 -12.54z"/>
     <path id="_17" class="fil5" d="M992.66 321.34l3.12 0 0 10.73c0,2.11 -0.43,3.67 -1.28,4.67 -1.15,1.35 -2.88,2.03 -5.19,2.03 -1.22,0 -2.26,-0.16 -3.1,-0.47 -0.84,-0.3 -1.55,-0.75 -2.12,-1.35 -0.58,-0.6 -1.01,-1.32 -1.28,-2.17l3.48 0c0.3,0.35 0.7,0.61 1.19,0.79 0.48,0.18 1.06,0.27 1.72,0.27 0.85,0 1.53,-0.13 2.05,-0.39 0.52,-0.26 0.88,-0.6 1.09,-1.01 0.22,-0.41 0.32,-1.12 0.32,-2.12 -0.55,0.55 -1.13,0.95 -1.74,1.19 -0.61,0.25 -1.3,0.37 -2.07,0.37 -1.69,0 -3.12,-0.61 -4.29,-1.82 -1.16,-1.21 -1.74,-2.75 -1.74,-4.61 0,-1.98 0.61,-3.58 1.85,-4.78 1.12,-1.09 2.45,-1.64 4,-1.64 0.73,0 1.41,0.14 2.06,0.4 0.64,0.26 1.28,0.7 1.93,1.31l0 -1.4zm-3.29 2.64c-1,0 -1.82,0.34 -2.47,1 -0.64,0.66 -0.97,1.49 -0.97,2.49 0,1.04 0.33,1.89 1,2.56 0.66,0.66 1.49,0.99 2.5,0.99 0.98,0 1.78,-0.33 2.42,-0.97 0.64,-0.65 0.95,-1.5 0.95,-2.56 0,-1.04 -0.31,-1.88 -0.96,-2.53 -0.64,-0.65 -1.46,-0.98 -2.47,-0.98z"/>
     <path id="_18" class="fil5" d="M1011.5 328.49l-10.1 0c0.15,0.9 0.54,1.61 1.17,2.14 0.63,0.53 1.43,0.79 2.41,0.79 1.17,0 2.18,-0.41 3.02,-1.24l2.63 1.25c-0.65,0.94 -1.44,1.63 -2.36,2.08 -0.92,0.45 -2.01,0.67 -3.28,0.67 -1.95,0 -3.55,-0.61 -4.78,-1.85 -1.24,-1.24 -1.85,-2.79 -1.85,-4.65 0,-1.91 0.61,-3.49 1.85,-4.75 1.23,-1.27 2.77,-1.9 4.63,-1.9 1.97,0 3.58,0.63 4.81,1.89 1.24,1.26 1.86,2.91 1.86,4.98l-0.01 0.59zm-3.13 -2.45c-0.21,-0.69 -0.62,-1.24 -1.23,-1.67 -0.61,-0.43 -1.32,-0.64 -2.13,-0.64 -0.88,0 -1.65,0.23 -2.31,0.72 -0.42,0.3 -0.8,0.83 -1.16,1.59l6.83 0z"/>
     <path id="_19" class="fil5" d="M1021.74 323.11l-1.95 1.96c-0.79,-0.79 -1.5,-1.18 -2.15,-1.18 -0.35,0 -0.62,0.07 -0.82,0.22 -0.2,0.15 -0.3,0.34 -0.3,0.56 0,0.17 0.06,0.32 0.19,0.46 0.12,0.15 0.44,0.34 0.94,0.59l1.15 0.57c1.21,0.59 2.04,1.21 2.5,1.82 0.45,0.62 0.67,1.35 0.67,2.18 0,1.11 -0.41,2.04 -1.23,2.78 -0.81,0.75 -1.91,1.11 -3.29,1.11 -1.83,0 -3.29,-0.71 -4.38,-2.14l1.94 -2.1c0.37,0.42 0.8,0.77 1.3,1.04 0.5,0.26 0.94,0.4 1.33,0.4 0.41,0 0.75,-0.1 1,-0.3 0.26,-0.2 0.38,-0.43 0.38,-0.69 0,-0.49 -0.46,-0.96 -1.37,-1.41l-1.06 -0.54c-2.03,-1.02 -3.05,-2.29 -3.05,-3.82 0,-0.99 0.39,-1.84 1.15,-2.54 0.76,-0.7 1.74,-1.05 2.93,-1.05 0.81,0 1.57,0.18 2.29,0.54 0.72,0.36 1.33,0.88 1.83,1.54z"/>
     <polygon id="_20" class="fil5" points="1025.96,330.69 1028.23,331.82 1025.37,336.69 1023.8,335.94 "/>
     <polygon id="_21" class="fil5" points="1039.64,316.92 1042.77,316.92 1046.72,328.75 1050.69,316.92 1053.81,316.92 1056.65,333.88 1053.54,333.88 1051.73,323.17 1048.14,333.88 1045.29,333.88 1041.72,323.17 1039.87,333.88 1036.72,333.88 "/>
     <path id="_22" class="fil5" d="M1068.19 321.34l3.14 0 0 12.54 -3.14 0 0 -1.34c-0.61,0.59 -1.23,1 -1.85,1.26 -0.62,0.25 -1.29,0.38 -2.01,0.38 -1.62,0 -3.03,-0.62 -4.21,-1.88 -1.18,-1.25 -1.77,-2.81 -1.77,-4.67 0,-1.93 0.57,-3.51 1.72,-4.75 1.14,-1.23 2.53,-1.85 4.17,-1.85 0.75,0 1.46,0.15 2.12,0.42 0.66,0.28 1.27,0.71 1.83,1.27l0 -1.38zm-3.31 2.57c-0.97,0 -1.78,0.35 -2.43,1.04 -0.64,0.68 -0.96,1.56 -0.96,2.63 0,1.09 0.32,1.98 0.98,2.68 0.66,0.69 1.46,1.04 2.42,1.04 0.99,0 1.81,-0.34 2.46,-1.03 0.66,-0.68 0.98,-1.58 0.98,-2.7 0,-1.09 -0.32,-1.97 -0.98,-2.64 -0.65,-0.68 -1.47,-1.02 -2.47,-1.02z"/>
     <path id="_23" class="fil5" d="M1082.17 323.11l-1.94 1.96c-0.79,-0.79 -1.5,-1.18 -2.15,-1.18 -0.35,0 -0.62,0.07 -0.83,0.22 -0.2,0.15 -0.3,0.34 -0.3,0.56 0,0.17 0.07,0.32 0.19,0.46 0.13,0.15 0.45,0.34 0.94,0.59l1.15 0.57c1.22,0.59 2.05,1.21 2.5,1.82 0.45,0.62 0.68,1.35 0.68,2.18 0,1.11 -0.41,2.04 -1.23,2.78 -0.82,0.75 -1.92,1.11 -3.29,1.11 -1.83,0 -3.29,-0.71 -4.38,-2.14l1.94 -2.1c0.37,0.42 0.8,0.77 1.3,1.04 0.5,0.26 0.94,0.4 1.32,0.4 0.42,0 0.75,-0.1 1.01,-0.3 0.25,-0.2 0.38,-0.43 0.38,-0.69 0,-0.49 -0.46,-0.96 -1.38,-1.41l-1.05 -0.54c-2.03,-1.02 -3.05,-2.29 -3.05,-3.82 0,-0.99 0.38,-1.84 1.15,-2.54 0.76,-0.7 1.73,-1.05 2.92,-1.05 0.82,0 1.58,0.18 2.3,0.54 0.72,0.36 1.32,0.88 1.82,1.54z"/>
     <polygon id="_24" class="fil5" points="1085.27,316.71 1088.41,316.71 1088.41,321.34 1090.27,321.34 1090.27,324.06 1088.41,324.06 1088.41,333.88 1085.27,333.88 1085.27,324.06 1083.66,324.06 1083.66,321.34 1085.27,321.34 "/>
     <path id="_25" class="fil5" d="M1104.52 328.49l-10.1 0c0.15,0.9 0.54,1.61 1.17,2.14 0.63,0.53 1.44,0.79 2.41,0.79 1.17,0 2.18,-0.41 3.02,-1.24l2.64 1.25c-0.66,0.94 -1.45,1.63 -2.37,2.08 -0.92,0.45 -2.01,0.67 -3.27,0.67 -1.96,0 -3.56,-0.61 -4.79,-1.85 -1.23,-1.24 -1.85,-2.79 -1.85,-4.65 0,-1.91 0.62,-3.49 1.85,-4.75 1.23,-1.27 2.77,-1.9 4.63,-1.9 1.97,0 3.58,0.63 4.82,1.89 1.23,1.26 1.85,2.91 1.85,4.98l-0.01 0.59zm-3.13 -2.45c-0.21,-0.69 -0.62,-1.24 -1.23,-1.67 -0.61,-0.43 -1.32,-0.64 -2.13,-0.64 -0.88,0 -1.65,0.23 -2.31,0.72 -0.41,0.3 -0.8,0.83 -1.16,1.59l6.83 0z"/>
     <path id="_26" class="fil5" d="M1106.35 321.34l2.72 0 0 1.59c0.29,-0.62 0.67,-1.09 1.15,-1.41 0.49,-0.32 1.01,-0.49 1.59,-0.49 0.4,0 0.83,0.11 1.27,0.33l-0.97 2.71c-0.37,-0.18 -0.67,-0.27 -0.91,-0.27 -0.48,0 -0.89,0.29 -1.22,0.89 -0.33,0.6 -0.5,1.77 -0.5,3.52l0.01 0.61 0 5.06 -3.14 0 0 -12.54z"/>
     <path id="_27" class="fil5" d="M1115.88 316.19c0.55,0 1.03,0.2 1.42,0.6 0.4,0.4 0.59,0.88 0.59,1.45 0,0.55 -0.19,1.03 -0.58,1.42 -0.39,0.4 -0.86,0.59 -1.41,0.59 -0.56,0 -1.03,-0.2 -1.43,-0.6 -0.39,-0.4 -0.59,-0.89 -0.59,-1.46 0,-0.55 0.2,-1.02 0.59,-1.41 0.39,-0.39 0.86,-0.59 1.41,-0.59zm-1.57 5.15l3.14 0 0 12.54 -3.14 0 0 -12.54z"/>
     <path id="_28" class="fil5" d="M1120.29 321.34l3.14 0 0 1.29c0.72,-0.6 1.37,-1.01 1.95,-1.25 0.57,-0.23 1.17,-0.35 1.77,-0.35 1.25,0 2.31,0.44 3.17,1.3 0.73,0.74 1.1,1.83 1.1,3.27l0 8.28 -3.12 0 0 -5.48c0,-1.5 -0.07,-2.49 -0.2,-2.98 -0.14,-0.49 -0.37,-0.86 -0.7,-1.12 -0.34,-0.26 -0.75,-0.39 -1.24,-0.39 -0.64,0 -1.18,0.22 -1.64,0.64 -0.46,0.43 -0.77,1.02 -0.95,1.76 -0.09,0.4 -0.14,1.24 -0.14,2.55l0 5.02 -3.14 0 0 -12.54z"/>
     <path id="_29" class="fil5" d="M1143.77 321.34l3.12 0 0 10.73c0,2.11 -0.43,3.67 -1.29,4.67 -1.14,1.35 -2.87,2.03 -5.18,2.03 -1.23,0 -2.26,-0.16 -3.11,-0.47 -0.83,-0.3 -1.54,-0.75 -2.12,-1.35 -0.58,-0.6 -1,-1.32 -1.28,-2.17l3.48 0c0.31,0.35 0.71,0.61 1.2,0.79 0.48,0.18 1.05,0.27 1.72,0.27 0.85,0 1.53,-0.13 2.05,-0.39 0.52,-0.26 0.88,-0.6 1.09,-1.01 0.21,-0.41 0.32,-1.12 0.32,-2.12 -0.56,0.55 -1.14,0.95 -1.75,1.19 -0.61,0.25 -1.3,0.37 -2.07,0.37 -1.69,0 -3.12,-0.61 -4.28,-1.82 -1.16,-1.21 -1.75,-2.75 -1.75,-4.61 0,-1.98 0.62,-3.58 1.85,-4.78 1.12,-1.09 2.46,-1.64 4.01,-1.64 0.72,0 1.41,0.14 2.05,0.4 0.64,0.26 1.29,0.7 1.94,1.31l0 -1.4zm-3.3 2.64c-0.99,0 -1.81,0.34 -2.46,1 -0.65,0.66 -0.97,1.49 -0.97,2.49 0,1.04 0.33,1.89 0.99,2.56 0.67,0.66 1.5,0.99 2.5,0.99 0.98,0 1.79,-0.33 2.43,-0.97 0.63,-0.65 0.95,-1.5 0.95,-2.56 0,-1.04 -0.32,-1.88 -0.96,-2.53 -0.64,-0.65 -1.46,-0.98 -2.48,-0.98z"/>
     <path id="_30" class="fil5" d="M1165.92 319.23l-2.4 2.11c-0.84,-1.16 -1.69,-1.75 -2.56,-1.75 -0.42,0 -0.77,0.12 -1.04,0.34 -0.27,0.23 -0.4,0.49 -0.4,0.77 0,0.28 0.09,0.55 0.28,0.81 0.27,0.33 1.06,1.06 2.38,2.17 1.23,1.03 1.98,1.68 2.24,1.95 0.65,0.66 1.12,1.29 1.39,1.89 0.27,0.61 0.41,1.27 0.41,1.98 0,1.39 -0.48,2.54 -1.44,3.44 -0.96,0.91 -2.22,1.36 -3.77,1.36 -1.21,0 -2.26,-0.29 -3.15,-0.88 -0.9,-0.6 -1.67,-1.53 -2.31,-2.79l2.72 -1.64c0.82,1.5 1.76,2.24 2.82,2.24 0.56,0 1.02,-0.16 1.4,-0.48 0.38,-0.32 0.57,-0.7 0.57,-1.12 0,-0.38 -0.14,-0.77 -0.43,-1.15 -0.28,-0.38 -0.91,-0.97 -1.89,-1.76 -1.85,-1.51 -3.04,-2.67 -3.58,-3.49 -0.54,-0.82 -0.81,-1.63 -0.81,-2.44 0,-1.18 0.45,-2.19 1.34,-3.03 0.9,-0.84 2.01,-1.26 3.32,-1.26 0.85,0 1.65,0.2 2.42,0.59 0.77,0.39 1.59,1.1 2.49,2.14z"/>
     <path id="_31" class="fil5" d="M1168.94 321.34l3.18 0 0 6.03c0,1.17 0.09,1.99 0.25,2.44 0.16,0.46 0.42,0.81 0.78,1.07 0.36,0.25 0.8,0.38 1.32,0.38 0.53,0 0.98,-0.13 1.34,-0.38 0.37,-0.24 0.64,-0.61 0.82,-1.09 0.13,-0.37 0.19,-1.14 0.19,-2.32l0 -6.13 3.14 0 0 5.3c0,2.19 -0.17,3.69 -0.52,4.5 -0.42,0.98 -1.04,1.73 -1.86,2.26 -0.83,0.52 -1.87,0.78 -3.14,0.78 -1.38,0 -2.49,-0.3 -3.34,-0.92 -0.85,-0.61 -1.45,-1.46 -1.79,-2.56 -0.25,-0.76 -0.37,-2.14 -0.37,-4.15l0 -5.21z"/>
     <path id="_32" class="fil5" d="M1195.39 323.89l-2.62 1.44c-0.49,-0.51 -0.98,-0.87 -1.46,-1.07 -0.48,-0.2 -1.04,-0.3 -1.69,-0.3 -1.17,0 -2.12,0.35 -2.85,1.05 -0.73,0.7 -1.09,1.59 -1.09,2.69 0,1.06 0.35,1.92 1.05,2.6 0.7,0.67 1.62,1 2.75,1 1.41,0 2.5,-0.48 3.29,-1.44l2.47 1.7c-1.34,1.75 -3.24,2.62 -5.69,2.62 -2.21,0 -3.94,-0.65 -5.18,-1.95 -1.25,-1.3 -1.88,-2.83 -1.88,-4.57 0,-1.22 0.31,-2.33 0.91,-3.35 0.61,-1.02 1.46,-1.82 2.55,-2.4 1.09,-0.59 2.3,-0.88 3.65,-0.88 1.24,0 2.36,0.25 3.35,0.75 1,0.49 1.81,1.2 2.44,2.11z"/>
     <path id="_33" class="fil5" d="M1210.5 323.89l-2.62 1.44c-0.49,-0.51 -0.97,-0.87 -1.45,-1.07 -0.48,-0.2 -1.04,-0.3 -1.69,-0.3 -1.18,0 -2.13,0.35 -2.85,1.05 -0.73,0.7 -1.09,1.59 -1.09,2.69 0,1.06 0.35,1.92 1.04,2.6 0.7,0.67 1.62,1 2.76,1 1.4,0 2.5,-0.48 3.28,-1.44l2.48 1.7c-1.35,1.75 -3.24,2.62 -5.69,2.62 -2.21,0 -3.94,-0.65 -5.19,-1.95 -1.24,-1.3 -1.87,-2.83 -1.87,-4.57 0,-1.22 0.3,-2.33 0.91,-3.35 0.61,-1.02 1.45,-1.82 2.54,-2.4 1.09,-0.59 2.31,-0.88 3.65,-0.88 1.25,0 2.37,0.25 3.36,0.75 0.99,0.49 1.8,1.2 2.43,2.11z"/>
     <path id="_34" class="fil5" d="M1225.89 328.49l-10.1 0c0.15,0.9 0.54,1.61 1.17,2.14 0.63,0.53 1.44,0.79 2.41,0.79 1.17,0 2.18,-0.41 3.02,-1.24l2.64 1.25c-0.66,0.94 -1.45,1.63 -2.37,2.08 -0.92,0.45 -2.01,0.67 -3.27,0.67 -1.96,0 -3.56,-0.61 -4.79,-1.85 -1.23,-1.24 -1.85,-2.79 -1.85,-4.65 0,-1.91 0.62,-3.49 1.85,-4.75 1.23,-1.27 2.77,-1.9 4.63,-1.9 1.98,0 3.58,0.63 4.82,1.89 1.23,1.26 1.85,2.91 1.85,4.98l-0.01 0.59zm-3.13 -2.45c-0.21,-0.69 -0.62,-1.24 -1.23,-1.67 -0.61,-0.43 -1.32,-0.64 -2.13,-0.64 -0.88,0 -1.64,0.23 -2.31,0.72 -0.41,0.3 -0.8,0.83 -1.15,1.59l6.82 0z"/>
     <path id="_35" class="fil5" d="M1236.13 323.11l-1.94 1.96c-0.79,-0.79 -1.51,-1.18 -2.15,-1.18 -0.35,0 -0.63,0.07 -0.83,0.22 -0.2,0.15 -0.3,0.34 -0.3,0.56 0,0.17 0.06,0.32 0.19,0.46 0.13,0.15 0.44,0.34 0.94,0.59l1.15 0.57c1.21,0.59 2.05,1.21 2.5,1.82 0.45,0.62 0.67,1.35 0.67,2.18 0,1.11 -0.4,2.04 -1.22,2.78 -0.82,0.75 -1.92,1.11 -3.3,1.11 -1.82,0 -3.29,-0.71 -4.38,-2.14l1.94 -2.1c0.37,0.42 0.81,0.77 1.31,1.04 0.49,0.26 0.93,0.4 1.32,0.4 0.41,0 0.75,-0.1 1,-0.3 0.26,-0.2 0.38,-0.43 0.38,-0.69 0,-0.49 -0.45,-0.96 -1.37,-1.41l-1.06 -0.54c-2.03,-1.02 -3.04,-2.29 -3.04,-3.82 0,-0.99 0.38,-1.84 1.14,-2.54 0.76,-0.7 1.74,-1.05 2.93,-1.05 0.81,0 1.58,0.18 2.3,0.54 0.71,0.36 1.32,0.88 1.82,1.54z"/>
     <path id="_36" class="fil5" d="M1246.52 323.11l-1.95 1.96c-0.78,-0.79 -1.5,-1.18 -2.15,-1.18 -0.34,0 -0.62,0.07 -0.82,0.22 -0.2,0.15 -0.3,0.34 -0.3,0.56 0,0.17 0.06,0.32 0.19,0.46 0.12,0.15 0.44,0.34 0.94,0.59l1.15 0.57c1.21,0.59 2.04,1.21 2.5,1.82 0.45,0.62 0.67,1.35 0.67,2.18 0,1.11 -0.41,2.04 -1.22,2.78 -0.82,0.75 -1.92,1.11 -3.3,1.11 -1.82,0 -3.29,-0.71 -4.38,-2.14l1.94 -2.1c0.37,0.42 0.81,0.77 1.3,1.04 0.5,0.26 0.94,0.4 1.33,0.4 0.41,0 0.75,-0.1 1,-0.3 0.26,-0.2 0.38,-0.43 0.38,-0.69 0,-0.49 -0.45,-0.96 -1.37,-1.41l-1.06 -0.54c-2.03,-1.02 -3.04,-2.29 -3.04,-3.82 0,-0.99 0.38,-1.84 1.14,-2.54 0.76,-0.7 1.74,-1.05 2.93,-1.05 0.81,0 1.58,0.18 2.3,0.54 0.71,0.36 1.32,0.88 1.82,1.54z"/>
    </g>
   </g>
  </g>
  <polygon class="fil3" points="0,0 1258,0 1258,486 0,486 "/>
 </g>
</svg>
